HIERARCHY
ROOT Hips
{
    OFFSET 0.000000 0.000000 0.000000
    CHANNELS 6 Xposition Yposition Zposition Zrotation Xrotation Yrotation
    JOINT Spine
    {
        OFFSET -0.000000 14.517291 0.000000
        CHANNELS 3 Zrotation Xrotation Yrotation
        JOINT Spine1
        {
            OFFSET -0.000000 37.558300 0.000000
            CHANNELS 3 Zrotation Xrotation Yrotation
            JOINT Neck
            {
                OFFSET -0.000000 37.404057 3.400369
                CHANNELS 3 Zrotation Xrotation Yrotation
                JOINT Head
                {
                    OFFSET -0.000000 24.785618 -3.540803
                    CHANNELS 3 Zrotation Xrotation Yrotation
                    End Site
                    {
                        OFFSET -0.000000 35.408028 0.000000
                    }
                }
            }
            JOINT LeftShoulder
            {
                OFFSET 6.992933 33.973492 -0.192664
                CHANNELS 3 Zrotation Xrotation Yrotation
                JOINT LeftArm
                {
                    OFFSET 21.527611 0.000000 0.000000
                    CHANNELS 3 Zrotation Xrotation Yrotation
                    JOINT LeftForeArm
                    {
                        OFFSET 56.353916 0.000000 0.000000
                        CHANNELS 3 Zrotation Xrotation Yrotation
                        JOINT LeftHand
                        {
                            OFFSET 47.774071 0.000000 0.000000
                            CHANNELS 3 Zrotation Xrotation Yrotation
                            End Site
                            {
                                OFFSET 26.556021 0.000000 0.000000
                            }
                        }
                    }
                }
            }
            JOINT RightShoulder
            {
                OFFSET -7.065357 33.973492 -0.192664
                CHANNELS 3 Zrotation Xrotation Yrotation
                JOINT RightArm
                {
                    OFFSET -21.527611 0.000000 0.000000
                    CHANNELS 3 Zrotation Xrotation Yrotation
                    JOINT RightForeArm
                    {
                        OFFSET -56.353916 0.000000 0.000000
                        CHANNELS 3 Zrotation Xrotation Yrotation
                        JOINT RightHand
                        {
                            OFFSET -47.774071 0.000000 0.000000
                            CHANNELS 3 Zrotation Xrotation Yrotation
                            End Site
                            {
                                OFFSET -26.556021 0.000000 0.000000
                            }
                        }
                    }
                }
            }
        }
    }
    JOINT LeftUpLeg
    {
        OFFSET 17.704014 0.000000 0.000000
        CHANNELS 3 Zrotation Xrotation Yrotation
        JOINT LeftLeg
        {
            OFFSET -0.000000 -81.181816 0.000000
            CHANNELS 3 Zrotation Xrotation Yrotation
            JOINT LeftFoot
            {
                OFFSET -0.000000 -62.821102 0.000000
                CHANNELS 3 Zrotation Xrotation Yrotation
                JOINT LeftToeBase
                {
                    OFFSET -0.000000 -11.507608 26.556021
                    CHANNELS 3 Zrotation Xrotation Yrotation
                    End Site
                    {
                        OFFSET -0.000000 0.000000 7.081605
                    }
                }
            }
        }
    }
    JOINT RightUpLeg
    {
        OFFSET -17.704014 0.000000 0.000000
        CHANNELS 3 Zrotation Xrotation Yrotation
        JOINT RightLeg
        {
            OFFSET -0.000000 -81.181816 0.000000
            CHANNELS 3 Zrotation Xrotation Yrotation
            JOINT RightFoot
            {
                OFFSET -0.000000 -62.821102 0.000000
                CHANNELS 3 Zrotation Xrotation Yrotation
                JOINT RightToeBase
                {
                    OFFSET -0.000000 -11.507608 26.556021
                    CHANNELS 3 Zrotation Xrotation Yrotation
                    End Site
                    {
                        OFFSET -0.000000 0.000000 7.081605
                    }
                }
            }
        }
    }
}
MOTION
Frames:    10
Frame Time:    0.008333
-23.091021    161.499420    -63.042439    -4.378978    2.169204    40.775467    -0.147699    -1.278288    -2.815211    -6.428360    1.437186    -0.855559    13.855927    -6.033470    -2.935859    4.026275    3.451965    -5.415693    8.958471    5.213118    -21.541851    -27.000881    19.613106    -59.669624    -15.577805    1.146904    -91.470985    17.359037    -15.821805    -6.443333    -14.254640    -6.409811    -2.680276    25.555334    -23.412973    64.214340    -12.993519    -13.997639    51.668888    -10.906816    -10.417664    27.346851    24.603064    -8.868850    -8.518581    -10.674268    35.258701    -22.350422    -5.907383    -15.378968    34.262428    0.000000    0.000000    0.000000    0.290339    -23.748228    -0.638563    12.477594    25.203520    -11.733794    -10.341991    -0.548492    -17.658319    0.000000    0.000000    0.000000    
-22.712898    161.547989    -63.231045    -4.330583    2.197963    40.640163    -0.161832    -1.255915    -2.755107    -6.451734    1.418320    -0.836286    13.676840    -5.964822    -2.934351    4.234648    3.412059    -5.344169    8.916007    5.176998    -21.538313    -27.038891    19.635918    -59.576851    -15.617931    1.163320    -91.493614    17.437515    -15.861720    -6.469038    -14.322177    -6.454804    -2.599134    25.619581    -23.422976    64.141144    -12.964861    -13.957041    51.806625    -10.870763    -10.376742    27.488745    24.866051    -8.866740    -8.981256    -10.557188    34.544998    -22.440304    -6.084879    -15.238030    34.354912    0.000000    0.000000    0.000000    0.108293    -23.720360    -0.666271    12.490063    25.219633    -11.664087    -10.304111    -0.480259    -17.826071    0.000000    0.000000    0.000000    
-22.331406    161.583038    -63.423569    -4.308092    2.222935    40.512749    -0.145455    -1.256719    -2.701551    -6.493036    1.418582    -0.817901    13.887283    -5.999068    -2.885664    3.915788    3.438912    -5.377606    8.886762    5.198986    -21.468691    -27.071644    19.568636    -59.576927    -15.638144    1.241196    -91.483154    17.412121    -15.796509    -6.423113    -14.304417    -6.421734    -2.594353    25.599617    -23.453600    64.222046    -13.008086    -13.957350    51.818718    -10.931959    -10.357458    27.369596    25.129528    -8.860674    -9.330495    -10.391338    33.857529    -22.452927    -6.293673    -15.065881    34.359306    0.000000    0.000000    0.000000    -0.059260    -23.694817    -0.720445    12.478850    25.229185    -11.583637    -10.211978    -0.476276    -17.793419    0.000000    0.000000    0.000000    
-21.952148    161.619095    -63.632595    -4.275307    2.242993    40.381123    -0.149116    -1.247026    -2.640209    -6.517087    1.419730    -0.797110    13.692233    -5.911296    -2.903142    4.175576    3.364183    -5.313267    8.862334    5.185670    -21.480686    -27.117851    19.520287    -59.504585    -15.707425    1.317856    -91.471939    17.481998    -15.805610    -6.497034    -14.332212    -6.439374    -2.568960    25.664553    -23.477613    64.225266    -12.960985    -13.929528    51.922218    -10.864202    -10.335346    27.510208    25.361656    -8.836049    -9.616833    -10.196858    33.163521    -22.446991    -6.566688    -14.879165    34.418701    0.000000    0.000000    0.000000    -0.235087    -23.660849    -0.750024    12.476979    25.227331    -11.512029    -10.133543    -0.467537    -17.759581    0.000000    0.000000    0.000000    
-21.562395    161.640182    -63.860004    -4.262827    2.263794    40.252937    -0.120493    -1.260269    -2.600222    -6.549733    1.436004    -0.782570    13.652559    -5.911797    -2.885710    4.206163    3.383940    -5.284322    8.828914    5.177711    -21.415340    -27.117144    19.509155    -59.497849    -15.697588    1.321483    -91.472412    17.479239    -15.781996    -6.429647    -14.354127    -6.436854    -2.543794    25.794897    -23.502266    64.377869    -13.017605    -13.914324    51.866852    -10.834567    -10.285321    27.433075    25.601414    -8.812617    -9.810544    -10.026093    32.503216    -22.440525    -6.655508    -14.598437    34.494503    0.000000    0.000000    0.000000    -0.408399    -23.654072    -0.823047    12.462326    25.261280    -11.410474    -10.029731    -0.480857    -17.719744    0.000000    0.000000    0.000000    
-21.176998    161.657349    -64.107414    -4.252487    2.266810    40.110748    -0.119890    -1.234331    -2.549913    -6.544595    1.421481    -0.766708    13.839680    -5.986822    -2.787267    3.986653    3.467667    -5.256878    8.822471    5.179005    -21.387274    -27.224894    19.401342    -59.478622    -15.842246    1.496255    -91.379448    17.574821    -15.749273    -6.481361    -14.350847    -6.489911    -2.478781    25.749620    -23.512545    64.242683    -12.941037    -13.891425    52.068932    -10.861607    -10.284301    27.497293    25.819633    -8.783735    -9.912244    -9.836880    31.895920    -22.483139    -6.639736    -14.275911    34.658535    0.000000    0.000000    0.000000    -0.557360    -23.654390    -0.862858    12.448904    25.289324    -11.386384    -9.869650    -0.476413    -17.830343    0.000000    0.000000    0.000000    
-20.787230    161.671860    -64.356377    -4.253141    2.276692    39.965374    -0.101675    -1.252192    -2.487295    -6.566588    1.460866    -0.743297    13.913078    -5.990356    -2.757729    3.915664    3.455390    -5.249130    8.833658    5.173124    -21.346010    -27.183813    19.417408    -59.515083    -15.738340    1.406456    -91.362831    17.335213    -15.713014    -6.493393    -14.312661    -6.460456    -2.519538    25.778521    -23.535120    64.378052    -12.965895    -13.928605    52.056156    -10.978800    -10.326001    27.357269    26.030724    -8.703282    -9.973878    -9.655128    31.170675    -22.339066    -6.539051    -13.781922    34.716892    0.000000    0.000000    0.000000    -0.716061    -23.656059    -0.861309    12.469522    25.303291    -11.395271    -9.785628    -0.469320    -17.741367    0.000000    0.000000    0.000000    
-20.386719    161.681122    -64.631821    -4.242018    2.280497    39.809650    -0.085155    -1.237962    -2.453092    -6.571841    1.470894    -0.731314    13.856602    -5.976880    -2.749123    4.013115    3.441320    -5.215492    8.817430    5.130502    -21.307102    -27.243092    19.406387    -59.460804    -15.804926    1.471375    -91.347084    17.438675    -15.714986    -6.459347    -14.349954    -6.460166    -2.489275    25.891033    -23.555004    64.422333    -12.968285    -13.906819    52.139084    -10.889347    -10.273659    27.398232    26.190416    -8.621118    -9.896212    -9.396158    30.539509    -22.232248    -6.557194    -13.383565    34.667599    0.000000    0.000000    0.000000    -0.894134    -23.661579    -0.869532    12.501273    25.333628    -11.403451    -9.686509    -0.458274    -17.664259    0.000000    0.000000    0.000000    
-19.986650    161.692123    -64.931648    -4.243935    2.318110    39.655384    -0.101410    -1.253587    -2.421263    -6.558731    1.475225    -0.720567    13.891521    -6.014237    -2.690070    3.996356    3.498991    -5.169615    8.795786    5.114960    -21.275162    -27.224247    19.444378    -59.447693    -15.824792    1.417664    -91.353325    17.531393    -15.793217    -6.453664    -14.310079    -6.480493    -2.428011    25.867586    -23.544374    64.443642    -13.009939    -13.959610    52.156471    -11.021572    -10.323958    27.275146    26.318039    -8.559512    -9.732038    -9.145337    29.877268    -22.155325    -6.566754    -12.969744    34.715454    0.000000    0.000000    0.000000    -1.084452    -23.713085    -0.896683    12.506967    25.376627    -11.416106    -9.546333    -0.458443    -17.548477    0.000000    0.000000    0.000000    
-19.560453    161.699158    -65.246025    -4.232425    2.332882    39.489010    -0.077968    -1.247268    -2.362879    -6.604607    1.477687    -0.700461    13.992611    -5.990059    -2.651438    3.941342    3.479025    -5.152591    8.855615    5.135341    -21.273088    -27.218576    19.444147    -59.469063    -15.772976    1.334027    -91.348404    17.469408    -15.811651    -6.425558    -14.304166    -6.481292    -2.429744    25.921110    -23.529980    64.458237    -12.955008    -14.091824    52.259453    -10.813889    -10.422988    27.300768    26.412039    -8.504943    -9.555820    -8.889913    29.275539    -22.145512    -6.611470    -12.538191    34.799595    0.000000    0.000000    0.000000    -1.280562    -23.737885    -0.943734    12.509939    25.425823    -11.385679    -9.430085    -0.456494    -17.439518    0.000000    0.000000    0.000000    
